<?xml version="1.0" standalone="no"?>
<!DOCTYPE svg PUBLIC "-//W3C//DTD SVG 20010904//EN"
 "http://www.w3.org/TR/2001/REC-SVG-20010904/DTD/svg10.dtd">
<svg version="1.0" xmlns="http://www.w3.org/2000/svg"
 width="430.000000pt" height="430.000000pt" viewBox="0 0 430.000000 430.000000"
 preserveAspectRatio="xMidYMid meet">
<metadata>
Created by potrace 1.14, written by Peter Selinger 2001-2017
</metadata>
<g transform="translate(0.000000,430.000000) scale(0.100000,-0.100000)"
fill="#000000" stroke="none">
<path d="M1930 4290 c-406 -45 -819 -215 -1130 -467 -104 -84 -293 -280 -372
-386 -586 -786 -565 -1878 49 -2637 84 -104 280 -293 386 -372 786 -586 1878
-565 2637 49 104 84 293 280 372 386 586 786 565 1878 -49 2637 -84 104 -280
293 -386 372 -282 210 -613 349 -963 404 -120 18 -427 26 -544 14z m480 -969
c667 -152 1069 -814 900 -1477 -38 -147 -128 -325 -223 -444 -43 -53 -59 -66
-86 -68 -31 -3 -41 4 -112 76 -89 91 -96 112 -51 164 80 93 149 226 183 353
29 105 32 325 6 428 -82 329 -328 581 -652 668 -105 29 -325 32 -428 6 -328
-82 -580 -328 -668 -652 -32 -115 -32 -335 0 -450 28 -103 97 -243 160 -325
28 -36 50 -76 51 -89 0 -18 -23 -47 -78 -103 -97 -96 -121 -101 -177 -35 -123
143 -218 338 -261 539 -26 116 -25 361 0 478 105 485 494 864 966 940 41 6 82
13 90 15 42 11 302 -6 380 -24z m-55 -546 c203 -68 356 -220 422 -418 23 -71
27 -98 27 -207 0 -111 -3 -134 -28 -205 -47 -135 -116 -235 -163 -235 -35 0
-183 145 -183 179 0 13 17 57 38 99 34 70 37 83 37 161 0 73 -4 95 -28 146
-36 78 -104 146 -181 182 -52 24 -74 28 -146 28 -72 0 -94 -4 -146 -28 -77
-36 -145 -104 -181 -182 -24 -51 -28 -73 -28 -146 0 -78 3 -91 38 -161 20 -42
37 -86 37 -99 0 -15 -26 -49 -78 -101 -108 -108 -125 -106 -204 16 -21 33 -50
96 -65 140 -23 70 -27 98 -27 206 0 111 3 134 28 205 81 233 251 385 491 441
93 21 242 12 340 -21z m-102 -1002 c8 -10 66 -186 128 -392 105 -349 111 -376
98 -400 l-15 -26 -302 -3 c-196 -1 -310 1 -322 8 -11 6 -22 21 -25 33 -7 27
210 755 232 780 13 14 33 17 103 17 70 0 90 -3 103 -17z"/>
</g>
</svg>
